<?xml version="1.0" standalone="no"?>
<!DOCTYPE svg PUBLIC "-//W3C//DTD SVG 20010904//EN"
 "http://www.w3.org/TR/2001/REC-SVG-20010904/DTD/svg10.dtd">
<svg version="1.0" xmlns="http://www.w3.org/2000/svg"
 width="300.000000pt" height="166.000000pt" viewBox="0 0 300.000000 166.000000"
 preserveAspectRatio="xMidYMid meet">
<metadata>
Created by potrace 1.10, written by Peter Selinger 2001-2011
</metadata>
<g transform="translate(0.000000,166.000000) scale(0.100000,-0.100000)"
fill="#000000" stroke="none">
<path d="M2072 1341 c-72 -25 -119 -66 -152 -136 -11 -22 -20 -49 -20 -60 0
-10 -12 -29 -27 -41 l-28 -22 22 -24 c12 -13 31 -53 42 -89 52 -165 195 -309
310 -309 35 0 49 6 82 38 44 41 79 126 79 191 0 42 16 63 31 40 11 -17 21 -56
43 -174 46 -243 163 -470 263 -512 61 -25 114 17 156 125 20 49 47 197 47 254
0 21 10 58 21 80 21 40 21 44 6 92 -9 28 -21 94 -27 146 -28 248 -95 379 -209
410 -117 31 -237 -82 -271 -255 -15 -80 -20 -95 -29 -95 -11 0 -31 47 -31 71
0 35 -41 141 -71 185 -33 49 -96 89 -150 97 -21 3 -56 -2 -87 -12z m89 -44
c56 -38 82 -116 87 -268 5 -148 -11 -224 -58 -271 -28 -28 -30 -28 -59 -14
-40 21 -79 108 -99 219 -24 136 0 267 61 335 25 27 26 27 68 -1z m471 7 c-31
-22 -69 -107 -83 -188 -18 -106 -6 -445 20 -566 26 -120 26 -126 -2 -65 -39
82 -83 229 -93 310 -9 74 -26 134 -40 146 -19 15 -18 25 5 57 11 15 22 47 25
72 15 113 70 203 144 237 39 17 50 16 24 -3z m-368 -41 c38 -38 61 -85 79
-167 9 -38 25 -82 36 -96 19 -27 19 -27 -1 -48 -14 -14 -24 -42 -29 -82 -14
-99 -51 -156 -116 -178 -24 -8 -36 -7 -49 3 -17 12 -17 13 3 19 53 17 93 139
93 282 0 126 -13 193 -51 262 -33 58 -20 60 35 5z m532 -6 c29 -39 42 -69 72
-167 6 -19 14 -78 18 -130 4 -52 13 -112 20 -134 18 -49 18 -104 0 -137 -7
-14 -16 -64 -20 -111 -7 -85 -32 -193 -56 -239 -44 -85 -92 -91 -162 -19 -51
53 -67 89 -21 45 35 -31 46 -31 78 1 66 66 96 237 90 514 -4 214 -18 301 -59
375 -31 54 -31 54 -8 48 9 -2 31 -23 48 -46z m-769 -8 c-20 -40 -22 -58 -21
-194 0 -139 2 -155 27 -214 l27 -64 -25 23 c-35 33 -70 95 -95 169 -11 34 -26
71 -32 81 -9 14 -8 28 6 62 10 24 25 60 34 81 14 35 88 114 98 105 2 -3 -6
-24 -19 -49z m700 3 c44 -66 58 -166 58 -407 0 -175 -4 -237 -18 -305 -22
-101 -54 -165 -82 -165 -29 0 -64 71 -88 183 -29 134 -32 535 -5 623 35 111
88 140 135 71z"/>
<path d="M2103 1102 c-18 -27 -33 -51 -33 -55 0 -4 16 -32 36 -63 l37 -57 28
34 c16 19 31 42 34 52 6 15 -52 137 -65 137 -3 0 -20 -22 -37 -48z m52 -32
c19 -36 19 -64 1 -79 -11 -9 -18 -5 -36 23 -21 35 -21 36 -3 60 10 14 19 26
20 26 1 0 9 -13 18 -30z"/>
<path d="M2645 977 l-36 -77 32 -97 c18 -54 35 -102 39 -106 10 -11 70 118 70
148 0 21 -56 194 -66 204 -2 2 -20 -30 -39 -72z m58 -58 c10 -28 17 -62 17
-75 0 -25 -19 -74 -30 -74 -7 0 -37 84 -42 115 -3 22 20 85 32 85 4 0 14 -23
23 -51z"/>
<path d="M987 1333 c-10 -10 -8 -173 2 -173 5 0 14 14 20 32 18 52 49 78 93
78 l38 0 0 -78 c0 -66 -3 -82 -20 -97 -11 -10 -20 -25 -20 -34 0 -9 9 -22 20
-29 18 -11 20 -23 20 -122 0 -61 3 -110 8 -110 4 0 27 6 52 14 l45 13 3 112
c2 98 5 113 22 124 26 15 25 33 0 47 -17 9 -20 21 -20 90 l0 80 40 0 c43 0 82
-30 95 -71 13 -41 25 -15 25 56 l0 75 -208 0 c-115 0 -212 -3 -215 -7z m63
-42 c0 -5 -7 -12 -16 -15 -22 -9 -24 -8 -24 9 0 8 9 15 20 15 11 0 20 -4 20
-9z m182 -8 c-17 -33 -15 -152 3 -180 15 -22 15 -26 1 -42 -12 -13 -16 -40
-16 -109 0 -80 -2 -93 -19 -102 -11 -5 -22 -10 -25 -10 -3 0 -6 37 -6 83 0 64
-4 88 -19 111 -20 29 -20 30 0 57 17 24 19 40 16 101 -2 40 -7 81 -12 91 -6
15 -1 17 39 17 41 0 46 -2 38 -17z m148 1 c0 -14 -3 -14 -15 -4 -8 7 -15 14
-15 16 0 2 7 4 15 4 8 0 15 -7 15 -16z"/>
<path d="M1431 1263 c0 -65 2 -75 12 -58 31 51 65 75 106 75 l41 0 0 -68 c0
-60 -3 -71 -25 -92 l-25 -24 25 -26 c23 -24 25 -33 25 -123 0 -95 0 -97 24
-97 13 0 38 -3 55 -6 l31 -6 0 107 c0 99 2 108 23 125 l22 18 -22 24 c-20 21
-23 35 -23 96 l0 72 48 -6 c46 -6 82 -31 82 -59 0 -7 7 -18 15 -25 13 -11 15
-2 15 69 l0 81 -215 0 -215 0 1 -77z m59 43 c0 -2 -7 -9 -15 -16 -12 -10 -15
-10 -15 4 0 9 7 16 15 16 8 0 15 -2 15 -4z m200 -5 c0 -6 -4 -13 -10 -16 -5
-3 -10 -40 -10 -82 0 -57 4 -81 17 -95 15 -17 15 -19 0 -36 -13 -14 -17 -39
-17 -105 0 -86 0 -87 -25 -87 -25 0 -25 1 -25 80 0 59 -5 88 -17 106 -13 21
-14 30 -5 45 16 25 16 171 0 187 -9 9 0 12 40 12 29 0 52 -4 52 -9z"/>
<path d="M150 1323 c-51 -2 -87 -9 -92 -16 -11 -17 -10 -309 2 -327 11 -18 12
-15 34 90 9 41 25 90 36 108 16 27 26 32 56 32 l37 0 -7 -160 c-5 -118 -12
-175 -27 -216 -24 -72 -24 -99 0 -138 18 -29 19 -42 10 -216 -4 -102 -11 -204
-14 -227 -4 -24 -3 -43 2 -43 4 1 30 21 57 46 l50 46 7 106 c4 59 8 154 8 212
1 90 5 113 26 158 30 65 31 79 5 112 -17 22 -20 42 -20 177 l0 151 42 7 c36 6
44 4 60 -15 10 -12 23 -41 28 -63 17 -67 20 -71 31 -60 6 6 9 57 7 124 l-3
114 -125 1 c-69 0 -163 -1 -210 -3z m283 -33 c12 0 17 -8 17 -31 0 -25 -3 -29
-13 -20 -8 6 -32 13 -54 16 -31 4 -47 0 -67 -16 l-26 -20 0 -153 c0 -118 3
-156 15 -172 19 -25 19 -77 0 -114 -17 -33 -21 -68 -30 -290 -5 -115 -11 -162
-23 -182 -9 -16 -20 -28 -24 -28 -4 0 -5 91 -2 202 5 191 4 205 -14 232 -20
28 -20 28 1 95 17 54 22 97 25 234 2 119 -1 173 -9 183 -28 34 -127 0 -130
-45 0 -9 -5 -3 -10 14 -9 31 -5 73 8 86 10 10 116 15 233 12 47 -2 93 -3 103
-3z"/>
<path d="M707 1323 c-2 -4 -26 -96 -52 -203 -40 -165 -52 -200 -76 -225 -32
-34 -36 -61 -16 -89 11 -16 10 -34 -8 -115 -23 -103 -32 -123 -77 -185 -25
-35 -37 -76 -22 -76 3 0 45 28 95 62 68 47 89 67 89 85 0 15 -5 21 -14 17 -21
-8 -28 27 -16 82 28 126 25 121 101 160 39 19 72 34 73 32 6 -7 26 -112 26
-131 0 -11 -14 -35 -31 -53 -17 -18 -29 -38 -27 -46 2 -10 34 2 117 47 63 33
116 65 118 70 1 6 -12 17 -30 25 -38 18 -36 14 -122 325 l-60 220 -32 3 c-17
2 -33 -1 -36 -5z m59 -74 c6 -24 24 -89 39 -144 60 -220 86 -301 106 -328 11
-16 19 -29 17 -30 -1 -2 -24 -12 -50 -24 l-47 -22 5 27 c5 25 -16 128 -31 152
-3 6 -18 10 -33 11 -25 0 -26 1 -5 9 12 5 24 18 28 29 7 23 -21 181 -40 229
-14 32 -39 43 -48 20 -3 -8 -6 -5 -6 5 -2 30 31 118 42 114 6 -2 16 -23 23
-48z m-12 -202 c10 -60 16 -110 14 -111 -2 -1 -27 -12 -57 -24 -34 -14 -51
-17 -49 -9 3 6 18 69 34 139 16 70 31 124 34 120 4 -4 14 -56 24 -115z m-110
-162 c3 -8 16 -15 28 -16 l23 0 -25 -17 c-14 -9 -35 -27 -47 -39 l-23 -22 -11
21 c-9 17 -8 28 6 55 19 35 39 43 49 18z m-44 -320 c0 -7 -61 -47 -66 -43 -2
3 5 26 17 52 l21 48 14 -27 c8 -15 14 -29 14 -30z"/>
<path d="M1360 887 c-54 -17 -124 -93 -149 -161 -26 -70 -26 -149 0 -154 13
-2 17 9 21 65 3 41 13 84 26 108 40 78 122 135 194 135 25 0 29 3 18 10 -19
12 -65 11 -110 -3z"/>
<path d="M1372 819 c-78 -39 -132 -133 -132 -232 0 -38 -1 -39 -30 -35 -24 4
-30 1 -25 -9 3 -8 5 -16 5 -17 0 -1 14 -1 30 2 18 3 30 0 30 -7 0 -10 -15 -15
-46 -14 -6 0 -9 -8 -6 -19 3 -15 7 -16 19 -6 12 10 13 7 8 -18 -5 -25 -5 -27
7 -13 7 9 19 14 26 12 6 -3 12 0 12 6 0 6 -8 11 -17 11 -14 0 -15 2 -4 13 11
9 14 9 18 0 2 -7 15 -29 29 -48 13 -20 24 -42 23 -48 -1 -7 -1 -28 0 -47 l2
-35 23 28 c19 23 25 26 34 14 7 -8 9 -17 5 -20 -3 -4 -1 -7 6 -7 8 0 9 -5 1
-19 -16 -30 -13 -46 5 -31 8 7 15 19 15 27 0 8 5 11 10 8 6 -3 10 -1 10 4 0 6
-7 11 -15 11 -8 0 -15 5 -15 10 0 6 18 1 41 -10 22 -12 72 -27 111 -35 61 -11
70 -11 75 2 11 28 -12 46 -74 59 -114 23 -200 80 -232 154 -39 91 -24 185 39
245 37 35 39 19 5 -31 -26 -38 -33 -84 -14 -84 6 0 9 7 5 15 -8 21 3 45 20 45
18 0 19 -66 2 -74 -10 -5 -10 -7 0 -12 7 -3 13 -28 14 -62 l2 -57 3 50 c6 70
23 83 23 17 0 -48 -3 -54 -32 -72 -22 -13 -27 -20 -15 -20 9 0 17 -7 17 -15 0
-8 5 -15 11 -15 6 0 8 7 5 16 -5 14 -1 16 28 11 26 -4 39 -1 52 14 16 18 16
19 -4 19 -14 0 -22 6 -22 16 0 15 2 15 23 2 16 -11 24 -29 28 -64 l6 -49 3 40
c5 81 5 175 -1 175 -4 0 -19 -10 -34 -21 l-27 -22 4 24 c2 18 15 28 53 42 28
10 63 20 79 22 53 7 108 80 75 100 -16 11 -23 -3 -10 -19 11 -13 7 -19 -20
-35 -18 -11 -56 -25 -83 -31 -28 -6 -61 -13 -73 -16 -21 -6 -23 -3 -23 27 0
19 7 43 15 53 22 29 18 39 -7 22 -32 -23 -68 -21 -68 4 0 43 95 43 153 -1 36
-26 48 -17 17 15 -53 57 -126 70 -198 35z m48 -160 c0 -24 -4 -38 -10 -34 -5
3 -10 22 -10 41 0 19 5 34 10 34 6 0 10 -18 10 -41z m81 -87 c-9 -3 -9 -7 0
-18 17 -21 1 -31 -18 -11 -16 15 -15 18 2 37 14 15 21 18 24 9 2 -7 -1 -15 -8
-17z m-159 -214 c-9 -9 -12 -7 -12 12 0 19 3 21 12 12 9 -9 9 -15 0 -24z"/>
<path d="M1072 685 c-58 -41 -80 -143 -48 -220 19 -44 9 -44 -33 -1 -64 66
-185 95 -279 67 -81 -24 -186 -139 -169 -184 10 -27 24 -19 24 13 0 66 113
154 213 165 l45 5 -53 -18 c-109 -36 -163 -115 -128 -189 20 -42 21 -38 -14
-53 -43 -18 -110 -6 -166 29 -36 24 -51 28 -65 20 -27 -14 -23 -51 7 -80 36
-34 134 -32 222 4 62 26 63 26 95 7 58 -34 101 -35 162 -5 80 38 108 102 65
145 -24 24 -39 25 -66 6 -19 -14 -19 -15 -1 -46 45 -76 -31 -125 -133 -84 -22
9 -40 18 -40 19 0 7 144 141 163 152 12 7 39 12 59 13 33 0 45 -8 120 -83 83
-84 152 -124 194 -115 14 3 7 10 -28 27 -25 12 -69 46 -96 75 -82 87 -91 174
-26 246 38 42 43 74 16 89 -14 7 -25 6 -40 -4z m28 -33 c0 -5 -11 -22 -25 -38
-17 -20 -25 -24 -25 -13 0 8 9 25 20 37 22 24 30 27 30 14z m-217 -158 c40 -7
51 -24 14 -24 -30 0 -59 -20 -139 -98 -57 -56 -69 -63 -82 -52 -25 20 -20 74
10 109 48 57 113 78 197 65z m47 -146 c0 -19 -2 -20 -10 -8 -13 19 -13 30 0
30 6 0 10 -10 10 -22z m-480 -78 c14 -11 19 -20 12 -20 -19 0 -52 19 -52 30 0
15 12 12 40 -10z"/>
<path d="M1812 684 c-29 -20 -28 -27 13 -73 80 -88 67 -182 -39 -279 -25 -23
-62 -49 -83 -58 -29 -13 -34 -18 -19 -21 42 -11 110 30 193 114 73 73 87 83
118 83 50 0 80 -18 158 -98 l69 -69 -41 -17 c-49 -19 -81 -20 -116 -4 -33 15
-42 51 -21 83 20 30 20 30 0 49 -21 21 -40 20 -64 -4 -24 -24 -25 -68 -2 -96
57 -69 142 -87 218 -47 l42 22 58 -24 c78 -31 144 -40 188 -25 59 19 87 78 47
99 -14 8 -29 4 -65 -20 -56 -35 -123 -47 -166 -29 -16 7 -30 14 -30 15 0 1 7
18 15 38 10 25 12 43 5 67 -19 67 -50 94 -144 126 l-41 14 45 -6 c64 -7 122
-36 169 -83 32 -32 41 -48 41 -76 0 -37 13 -47 24 -19 18 47 -83 160 -166 185
-94 28 -212 -1 -286 -70 -18 -17 -35 -31 -37 -31 -2 0 3 16 11 35 23 56 18
134 -11 177 -34 50 -56 61 -83 42z m57 -60 c17 -39 13 -42 -14 -10 -14 16 -25
33 -25 37 0 17 28 -3 39 -27z m319 -148 c66 -35 105 -124 67 -156 -14 -12 -24
-6 -83 52 -80 78 -109 98 -139 98 -30 0 -30 17 0 23 35 8 126 -2 155 -17z
m-175 -126 c-3 -11 -9 -20 -14 -20 -10 0 -12 24 -2 33 13 13 21 7 16 -13z
m486 -91 c-29 -18 -44 -9 -19 11 15 11 26 15 29 8 2 -6 -3 -14 -10 -19z"/>
<path d="M1561 646 c-23 -13 -24 -17 -22 -112 1 -54 7 -104 12 -111 6 -6 14
-24 18 -40 4 -15 6 34 3 109 -3 102 -1 142 8 153 15 18 12 18 -19 1z"/>
<path d="M1243 434 c-3 -9 -2 -24 4 -33 12 -19 45 -21 51 -3 3 11 0 12 -16 3
-27 -14 -43 7 -19 24 21 15 22 25 2 25 -9 0 -18 -7 -22 -16z"/>
<path d="M1287 371 c-17 -6 -17 -9 -4 -19 12 -10 16 -9 20 8 3 11 4 20 4 19
-1 0 -10 -4 -20 -8z"/>
<path d="M1435 290 c-7 -31 9 -64 27 -58 14 5 39 68 28 68 -5 0 -12 -11 -16
-25 -3 -14 -12 -25 -20 -25 -17 0 -17 1 -4 34 5 14 5 28 0 31 -4 3 -11 -9 -15
-25z"/>
<path d="M1500 264 c-6 -15 -13 -30 -15 -34 -3 -4 15 -14 40 -22 44 -15 45
-15 45 6 1 18 3 16 16 -9 l14 -30 -4 32 c-4 20 0 36 10 44 8 6 12 14 9 17 -3
3 -15 -3 -26 -14 -21 -19 -22 -19 -15 4 4 12 3 22 -2 22 -5 0 -13 -17 -18 -37
-5 -27 -9 -32 -12 -18 -2 11 -8 24 -13 30 -16 16 -10 28 8 14 14 -12 16 -12
11 1 -9 27 -37 23 -48 -6z m20 -35 c0 -6 -4 -7 -10 -4 -5 3 -10 11 -10 16 0 6
5 7 10 4 6 -3 10 -11 10 -16z"/>
</g>
</svg>
