<?xml version="1.0" standalone="no"?>
<!DOCTYPE svg PUBLIC "-//W3C//DTD SVG 20010904//EN"
 "http://www.w3.org/TR/2001/REC-SVG-20010904/DTD/svg10.dtd">
<svg version="1.0" xmlns="http://www.w3.org/2000/svg"
 width="300.000000pt" height="300.000000pt" viewBox="0 0 300.000000 300.000000"
 preserveAspectRatio="xMidYMid meet">
<metadata>
Created by potrace 1.10, written by Peter Selinger 2001-2011
</metadata>
<g transform="translate(0.000000,300.000000) scale(0.100000,-0.100000)"
fill="#000000" stroke="none">
<path id="vector-01" d="M1240 2921 c-8 -5 -37 -14 -64 -20 -55 -13 -174 -68 -230 -106 -20
-14 -40 -25 -44 -25 -9 0 -135 -122 -177 -170 -40 -46 -95 -126 -95 -138 0 -6
-4 -12 -8 -14 -17 -7 -92 -169 -122 -264 -52 -168 -66 -313 -46 -486 9 -74 14
-78 92 -78 60 0 66 11 53 113 -15 110 8 283 56 431 32 98 72 196 85 206 4 3
15 21 26 40 10 19 21 37 24 40 3 3 23 29 44 57 20 29 48 61 62 72 13 10 24 24
24 30 0 6 3 11 8 11 4 0 32 23 62 50 30 27 69 57 85 65 17 9 50 27 74 40 24
14 50 25 58 25 7 0 13 5 13 11 0 6 9 9 20 6 11 -3 20 -2 20 2 0 19 173 50 283
51 83 0 93 22 20 41 -57 15 -301 22 -323 10z m170 -31 c-14 -4 -40 -8 -58 -9
-18 -1 -48 -8 -68 -16 -19 -8 -32 -10 -29 -5 3 6 1 10 -4 10 -6 0 -11 -5 -11
-12 0 -6 -3 -9 -6 -5 -5 5 -75 -30 -149 -75 -16 -10 -37 -21 -45 -25 -31 -14
-176 -156 -235 -228 -46 -56 -105 -150 -105 -166 0 -5 -4 -7 -10 -4 -6 4 -10
-5 -10 -20 0 -14 -11 -47 -25 -73 -22 -42 -34 -83 -50 -165 -3 -15 -10 -25
-14 -22 -5 3 -7 -4 -4 -15 3 -11 2 -28 -2 -37 -13 -31 -17 -84 -18 -231 l-2
-144 -34 6 c-18 3 -36 8 -40 11 -3 4 -6 87 -6 185 0 130 3 182 12 191 7 7 13
25 13 40 0 32 9 60 19 55 3 -2 7 13 7 33 1 21 11 57 23 81 12 24 21 52 21 61
0 10 11 31 25 47 14 17 25 34 25 40 0 5 16 33 35 62 19 29 35 55 35 59 0 4 37
46 83 93 91 95 194 178 220 178 9 0 17 4 17 9 0 15 32 22 47 10 7 -7 16 -9 20
-5 3 3 1 6 -5 6 -26 0 -10 18 31 35 88 38 157 52 252 53 49 0 62 -2 45 -8z"/>
<path id="vector-02" d="M575 2109 c-4 -6 -5 -12 -2 -15 2 -3 7 2 10 11 7 17 1 20 -8 4z"/>
<path id="vector-03" d="M1650 2730 c0 -5 5 -10 10 -10 6 0 10 5 10 10 0 6 -4 10 -10 10 -5 0
-10 -4 -10 -10z"/>
<path id="vector-04" d="M1130 2710 c0 -5 5 -10 10 -10 6 0 10 5 10 10 0 6 -4 10 -10 10 -5 0
-10 -4 -10 -10z"/>
<path id="vector-05" d="M678 2683 c-8 -10 -18 -27 -22 -38 -5 -15 0 -14 19 8 14 15 25 32 25
38 0 13 -5 11 -22 -8z"/>
<path id="vector-06" d="M1370 2690 c-8 -4 -36 -14 -62 -21 -27 -6 -48 -16 -48 -20 0 -5 -7
-9 -15 -9 -14 0 -85 -30 -95 -40 -3 -3 -21 -13 -40 -22 -80 -40 -177 -124
-236 -203 -16 -22 -36 -48 -45 -58 -9 -10 -25 -35 -35 -57 -10 -22 -22 -40
-26 -40 -5 0 -8 -7 -8 -16 0 -9 -6 -28 -14 -42 -7 -15 -19 -40 -26 -57 -7 -16
-17 -39 -21 -50 -5 -11 -14 -42 -20 -70 -5 -27 -14 -68 -19 -90 -16 -71 -12
-281 6 -323 9 -20 18 -59 21 -87 2 -27 9 -55 15 -62 11 -14 1 -36 -13 -28 -5
4 -9 -3 -9 -14 0 -24 -36 -37 -75 -27 -18 5 -27 2 -31 -9 -4 -8 -14 -15 -24
-15 -11 0 -21 -4 -25 -10 -9 -14 -32 -1 -38 21 -6 23 -27 26 -27 4 0 -9 8 -30
17 -48 9 -18 19 -45 22 -61 9 -40 31 -46 31 -8 0 25 5 30 31 36 60 12 62 6 23
-73 -23 -45 -25 -59 -18 -90 5 -20 14 -35 19 -34 6 0 20 27 32 58 28 71 28 71
56 56 13 -7 37 -11 53 -9 27 3 29 6 26 40 -1 20 -9 50 -17 65 l-15 28 0 -37
c0 -36 -2 -38 -33 -38 -36 0 -57 15 -57 41 0 11 15 21 45 29 50 14 49 13 33
39 -6 10 -8 27 -4 37 7 16 10 14 24 -16 8 -19 24 -52 34 -73 10 -21 18 -43 18
-50 0 -19 37 -83 78 -138 20 -26 53 -71 72 -99 19 -27 40 -50 45 -50 6 0 21
-16 34 -35 39 -57 57 -75 79 -75 11 0 22 -7 26 -15 3 -8 12 -15 21 -15 17 0
20 -16 5 -25 -13 -8 -42 14 -34 26 3 5 -2 9 -10 9 -12 0 -16 -10 -16 -35 0
-19 -3 -35 -8 -35 -4 0 -18 -20 -32 -45 -14 -25 -28 -45 -33 -45 -5 0 -6 26
-3 58 11 112 10 127 -14 177 l-24 49 -8 -31 c-5 -18 -32 -55 -66 -87 -48 -48
-61 -55 -84 -50 -36 7 -35 -8 2 -37 16 -13 30 -30 30 -36 0 -7 7 -13 16 -13
12 0 14 7 9 28 -5 24 2 36 50 86 52 55 84 69 57 26 -16 -26 -17 -236 0 -246 6
-4 17 1 24 12 7 10 18 25 24 31 6 7 30 41 55 77 52 73 77 85 114 53 25 -21
230 -126 314 -161 153 -65 203 -80 342 -107 28 -5 74 -15 104 -21 29 -7 97
-12 150 -12 l96 -1 1 71 c1 40 -3 92 -9 118 -10 46 -11 46 -52 46 -55 0 -227
29 -240 41 -5 5 -17 9 -28 9 -10 0 -53 11 -95 25 -42 14 -93 30 -112 36 -19 6
-51 17 -70 26 -19 8 -55 24 -80 34 -25 11 -58 27 -73 34 -16 8 -35 15 -43 15
-8 0 -14 5 -14 10 0 6 -12 16 -27 23 -16 6 -30 14 -33 18 -3 3 -22 17 -42 31
-68 45 -162 128 -212 188 -47 55 -131 219 -141 275 -4 22 -11 45 -16 51 -17
21 -39 171 -39 264 0 94 23 236 41 255 5 5 9 15 9 23 0 40 99 200 164 265 46
47 164 147 172 147 2 0 4 -27 4 -60 0 -59 0 -60 -29 -60 -34 0 -55 -29 -124
-170 -46 -92 -66 -173 -59 -232 4 -36 42 -47 77 -24 36 24 33 47 -5 40 -29 -6
-30 -6 -30 34 0 97 36 181 60 142 5 -9 24 -11 59 -8 l51 5 0 -125 c0 -121 -1
-125 -25 -148 -14 -13 -37 -27 -50 -30 -14 -3 -25 -9 -25 -13 0 -12 24 -31 39
-31 9 0 26 -15 38 -34 20 -31 22 -48 25 -252 l3 -218 -37 -11 c-20 -5 -40 -13
-44 -17 -4 -5 -24 -8 -45 -8 -53 0 -42 -24 20 -45 42 -14 51 -14 83 -1 l35 15
-5 -49 c-2 -27 -2 -57 2 -66 13 -33 30 4 31 64 l0 57 60 -3 c33 -2 74 -10 91
-19 47 -21 107 -19 142 5 26 19 102 104 102 115 0 2 -26 5 -58 5 -89 1 -109
12 -114 64 -3 24 -2 47 3 52 6 6 56 -21 79 -44 3 -3 12 -6 20 -8 8 -2 17 -8
18 -13 2 -5 12 -9 22 -9 9 0 23 -7 30 -15 7 -8 19 -15 26 -15 11 0 14 -34 14
-180 0 -157 2 -180 16 -180 14 0 15 19 12 159 -3 159 5 216 17 124 12 -90 24
-93 24 -6 1 80 -23 193 -41 193 -4 0 -8 22 -8 49 0 41 4 53 25 69 25 20 33 42
15 42 -25 0 -46 41 -48 98 -2 55 -1 59 25 73 15 8 38 25 50 38 17 18 24 20 27
10 3 -8 7 -166 9 -352 4 -279 2 -340 -9 -344 -24 -9 -15 -40 21 -80 19 -21 35
-44 35 -50 0 -7 4 -13 8 -13 12 0 64 -119 57 -130 -3 -5 -1 -11 5 -15 5 -3 10
-28 10 -55 0 -67 18 -74 22 -8 3 53 -2 101 -21 213 -7 36 -11 235 -11 490 l0
430 48 25 c41 21 189 115 217 138 6 4 25 17 43 27 17 11 32 25 32 32 0 7 4 13
9 13 5 0 20 17 32 38 13 20 27 40 32 43 13 9 12 87 -2 136 -9 32 -18 44 -36
49 -36 9 -57 -2 -53 -27 3 -22 16 -32 51 -43 13 -4 17 -16 17 -53 0 -53 -15
-73 -74 -99 -17 -8 -38 -18 -46 -23 -57 -32 -195 -79 -290 -100 -30 -7 -88
-21 -128 -32 -40 -11 -77 -17 -82 -14 -5 3 -6 21 -3 40 5 29 2 35 -12 35 -14
0 -16 -8 -13 -42 2 -33 -1 -43 -12 -43 -8 -1 -22 -4 -30 -7 -27 -11 -140 -29
-148 -24 -5 3 -4 42 0 88 5 46 7 106 4 134 -4 48 -2 53 35 91 21 22 43 51 49
64 5 13 15 31 22 40 6 9 8 24 4 34 -5 14 -9 15 -21 5 -8 -7 -15 -18 -15 -25 0
-24 -63 -47 -140 -52 -41 -2 -97 -8 -125 -13 -27 -4 -51 -8 -51 -7 -1 1 -4 34
-6 73 l-4 72 35 18 c19 11 37 19 40 20 6 1 17 5 76 27 49 19 192 14 260 -10
80 -28 138 -55 148 -70 4 -7 14 -13 20 -13 7 0 41 -22 75 -50 63 -51 87 -60
94 -38 6 16 -29 76 -59 104 -13 12 -23 25 -23 30 0 5 -22 25 -47 44 -26 19
-55 44 -65 54 -10 11 -18 17 -18 13 0 -4 -24 8 -52 27 -29 18 -75 39 -103 46
-60 16 -274 23 -295 10z m292 -45 c52 -16 153 -74 190 -109 15 -14 31 -26 35
-26 12 -1 46 -51 39 -57 -3 -4 -19 5 -34 19 -15 14 -38 29 -52 33 -14 4 -27
11 -30 15 -3 4 -45 21 -94 39 -67 23 -106 31 -159 31 -85 0 -208 -32 -253 -66
-17 -13 -37 -24 -45 -24 -8 0 -27 -12 -44 -28 -16 -15 -46 -39 -65 -53 -19
-15 -51 -43 -70 -63 -19 -20 -39 -36 -45 -36 -5 0 -19 -20 -30 -45 -16 -36
-23 -44 -38 -39 -13 4 -17 2 -13 -5 4 -6 -10 -48 -32 -94 -67 -139 -85 -213
-84 -357 0 -109 9 -174 36 -280 22 -84 83 -220 125 -278 11 -17 21 -34 21 -39
0 -8 64 -76 137 -145 16 -15 66 -52 113 -82 47 -31 90 -59 95 -63 15 -12 71
-38 160 -74 11 -4 50 -22 87 -38 37 -17 79 -31 93 -31 15 0 47 -9 73 -19 42
-17 79 -28 120 -37 8 -1 21 -6 30 -9 19 -8 41 -12 132 -21 91 -9 99 -16 107
-109 l6 -77 -39 3 c-21 1 -47 7 -58 12 -13 6 -16 6 -11 -2 4 -8 -1 -10 -17 -7
-81 19 -177 36 -199 36 -93 0 -459 136 -459 170 0 12 -2 12 -9 1 -7 -10 -13
-11 -30 -2 -12 7 -19 16 -16 21 3 6 -1 7 -9 4 -8 -3 -25 4 -38 16 -13 12 -36
29 -53 37 -16 9 -35 21 -42 27 -33 29 -43 36 -43 30 0 -3 -14 8 -32 25 -18 17
-47 41 -65 54 -18 12 -33 25 -33 30 0 7 -40 56 -76 91 -29 30 -65 92 -57 99 3
4 0 7 -8 7 -8 0 -19 9 -24 20 -6 10 -29 57 -53 104 -23 46 -42 91 -42 100 0 9
-3 16 -7 16 -9 0 -36 87 -57 187 -28 128 -16 344 26 458 26 73 32 83 47 78 12
-4 13 -3 3 5 -11 7 -10 16 4 48 24 55 56 117 68 131 28 32 36 43 36 49 0 12
38 53 44 47 3 -3 6 1 6 9 0 9 11 23 25 32 14 9 39 32 57 51 17 19 37 35 43 35
7 0 20 10 31 21 25 28 250 130 314 143 42 8 216 -5 262 -19z m-128 -346 c-29
-30 -29 -31 -30 -164 -1 -74 -4 -140 -7 -149 -4 -9 5 -20 28 -30 34 -16 92
-11 171 14 17 6 47 11 68 12 20 1 39 5 42 10 3 4 13 8 22 8 15 0 15 -2 2 -10
-12 -8 -11 -10 8 -10 12 0 22 4 22 8 0 12 46 32 71 32 11 0 50 10 87 22 37 12
82 21 100 21 21 -1 32 3 29 10 -3 7 22 21 59 34 35 12 64 20 64 19 0 -11 -83
-55 -92 -50 -8 5 -9 2 -5 -9 4 -11 1 -17 -7 -17 -7 0 -23 -12 -37 -26 -13 -14
-58 -44 -99 -65 -102 -54 -234 -131 -254 -148 -22 -18 -24 -14 -27 42 -3 51 8
67 45 67 10 0 65 16 122 35 57 19 112 35 124 35 11 0 20 5 20 10 0 6 6 10 13
10 17 0 53 38 44 46 -4 4 -17 0 -29 -8 -13 -8 -54 -23 -93 -32 -38 -10 -88
-26 -110 -36 -22 -10 -61 -21 -87 -23 -26 -2 -53 -11 -61 -19 -8 -8 -47 -25
-86 -38 -39 -14 -71 -28 -71 -32 0 -5 -8 -8 -17 -8 -10 0 -27 -12 -37 -27 -24
-33 -30 -145 -10 -185 15 -28 34 -38 34 -16 0 6 2 9 5 6 3 -2 1 -26 -4 -52 -5
-26 -5 -49 0 -52 5 -3 9 -13 9 -22 0 -16 50 -72 64 -72 4 0 23 -7 44 -17 46
-20 54 -21 69 -10 9 7 14 -2 19 -32 4 -23 10 -41 15 -41 5 0 9 -8 9 -17 0 -14
-3 -14 -20 5 -11 12 -20 25 -20 29 0 4 -20 16 -44 26 -24 10 -47 25 -50 33 -3
8 -14 14 -24 14 -10 0 -27 7 -38 15 -10 8 -31 15 -46 15 -36 0 -48 -45 -33
-117 6 -26 68 -59 103 -54 21 2 22 0 13 -17 -16 -30 -61 -62 -86 -62 -12 0
-42 7 -65 15 -23 8 -62 15 -86 15 -23 0 -46 5 -50 11 -5 8 -8 8 -13 0 -4 -6
-17 -12 -29 -14 -12 -2 -25 -6 -28 -10 -4 -4 -19 -7 -33 -6 l-26 0 25 11 c58
24 74 35 111 70 22 21 39 32 40 25 0 -6 6 10 14 38 8 32 12 90 10 165 -6 214
-6 305 0 425 7 140 2 181 -27 196 -26 14 -70 19 -83 9 -17 -12 -145 1 -145 15
0 18 47 99 70 120 15 14 42 18 132 21 138 5 187 9 195 18 3 3 9 4 11 1 3 -3
-8 -19 -24 -36z m-154 -329 c0 -179 -4 -187 -59 -127 l-31 32 0 128 0 127 45
0 45 0 0 -160z m350 -133 l0 -53 -65 -43 c-36 -23 -77 -54 -90 -67 -13 -13
-28 -24 -34 -24 -11 0 -9 145 2 157 15 14 172 90 180 86 4 -2 7 -28 7 -56z
m218 -389 c1 -222 4 -416 7 -433 6 -28 5 -29 -10 -11 -8 11 -15 24 -15 29 0
12 -26 37 -39 37 -17 0 -13 47 5 64 8 9 12 16 7 16 -4 0 -9 149 -10 331 -1
182 -4 333 -7 337 -12 11 -5 22 21 36 16 8 30 10 33 5 3 -4 7 -190 8 -411z
m-630 352 c3 -9 -1 -11 -13 -6 -13 5 -16 2 -11 -10 3 -8 0 -22 -8 -29 -12 -12
-16 -12 -25 -1 -9 11 -9 15 1 18 8 3 5 9 -10 17 -27 15 -29 31 -2 31 11 0 20
5 20 11 0 15 42 -13 48 -31z m62 -215 c0 -130 -4 -205 -10 -205 -5 0 -10 -7
-10 -15 0 -8 -4 -15 -8 -15 -5 0 -14 -11 -20 -25 -26 -58 -32 -24 -32 194 l0
218 32 27 c17 14 35 26 40 26 4 0 8 -92 8 -205z m334 34 c-9 -10 -25 -19 -36
-19 -10 0 -18 -7 -18 -15 0 -8 6 -15 14 -15 26 0 66 -59 66 -97 0 -30 -3 -34
-17 -28 -10 4 -37 12 -60 17 -47 11 -83 55 -83 102 0 32 40 89 99 140 l46 39
3 -52 c2 -39 -1 -58 -14 -72z m35 -50 c-19 -12 -24 -2 -8 17 9 11 14 13 17 4
3 -7 -2 -16 -9 -21z"/>
<path id="vector-07" d="M1238 2573 c7 -3 16 -2 19 1 4 3 -2 6 -13 5 -11 0 -14 -3 -6 -6z"/>
<path id="vector-08" d="M1255 2540 c3 -5 8 -10 11 -10 2 0 4 5 4 10 0 6 -5 10 -11 10 -5 0
-7 -4 -4 -10z"/>
<path id="vector-09" d="M1640 586 c0 -2 11 -6 25 -8 13 -3 22 -1 19 3 -5 9 -44 13 -44 5z"/>
<path id="vector-10" d="M1590 1920 c0 -5 5 -10 11 -10 5 0 7 5 4 10 -3 6 -8 10 -11 10 -2 0
-4 -4 -4 -10z"/>
<path id="vector-11" d="M1408 1263 c7 -3 16 -2 19 1 4 3 -2 6 -13 5 -11 0 -14 -3 -6 -6z"/>
<path id="vector-12" d="M1902 1100 c0 -14 2 -19 5 -12 2 6 2 18 0 25 -3 6 -5 1 -5 -13z"/>
<path id="vector-13" d="M988 2563 c7 -3 16 -2 19 1 4 3 -2 6 -13 5 -11 0 -14 -3 -6 -6z"/>
<path id="vector-14" d="M596 2531 c-4 -7 -5 -15 -2 -18 9 -9 19 4 14 18 -4 11 -6 11 -12 0z"/>
<path id="vector-15" d="M945 2530 c-3 -5 -2 -10 4 -10 5 0 13 5 16 10 3 6 2 10 -4 10 -5 0
-13 -4 -16 -10z"/>
<path id="vector-16" d="M1508 2483 c7 -3 16 -2 19 1 4 3 -2 6 -13 5 -11 0 -14 -3 -6 -6z"/>
<path id="vector-17" d="M1880 2371 c0 -5 7 -11 14 -14 10 -4 13 -1 9 9 -6 15 -23 19 -23 5z"/>
<path id="vector-18" d="M746 2284 c-4 -9 -4 -19 -1 -22 2 -3 7 3 11 12 4 9 4 19 1 22 -2 3
-7 -3 -11 -12z"/>
<path id="vector-19" d="M1051 2174 c0 -11 3 -14 6 -6 3 7 2 16 -1 19 -3 4 -6 -2 -5 -13z"/>
<path id="vector-20" d="M2401 2154 c0 -11 3 -14 6 -6 3 7 2 16 -1 19 -3 4 -6 -2 -5 -13z"/>
<path id="vector-21" d="M1005 2120 c-3 -5 -1 -10 4 -10 6 0 11 5 11 10 0 6 -2 10 -4 10 -3 0
-8 -4 -11 -10z"/>
<path id="vector-22" d="M1838 2083 c6 -2 18 -2 25 0 6 3 1 5 -13 5 -14 0 -19 -2 -12 -5z"/>
<path id="vector-23" d="M401 1944 c0 -11 3 -14 6 -6 3 7 2 16 -1 19 -3 4 -6 -2 -5 -13z"/>
<path id="vector-24" d="M912 1750 c0 -14 2 -19 5 -12 2 6 2 18 0 25 -3 6 -5 1 -5 -13z"/>
<path id="vector-25" d="M361 1744 c0 -11 3 -14 6 -6 3 7 2 16 -1 19 -3 4 -6 -2 -5 -13z"/>
<path id="vector-26" d="M404 1557 c-3 -8 4 -37 16 -66 11 -28 20 -65 20 -81 0 -16 5 -32 10
-35 11 -7 13 5 10 44 -2 23 0 23 54 19 40 -3 57 -1 60 9 3 8 21 13 46 13 31 0
40 -4 41 -17 1 -12 4 -9 9 7 5 17 3 29 -7 36 -7 7 -12 26 -11 44 3 37 -19 54
-24 18 -4 -27 -44 -36 -79 -17 -18 9 -24 8 -31 -5 -6 -10 -22 -16 -44 -16 -30
0 -35 4 -40 30 -7 31 -21 39 -30 17z m166 -78 c0 -5 -25 -9 -55 -9 -72 0 -72
14 0 17 30 1 55 -2 55 -8z"/>
<path id="vector-27" d="M391 1424 c0 -11 3 -14 6 -6 3 7 2 16 -1 19 -3 4 -6 -2 -5 -13z"/>
<path id="vector-28" d="M1341 1144 c0 -11 3 -14 6 -6 3 7 2 16 -1 19 -3 4 -6 -2 -5 -13z"/>
<path id="vector-29" d="M655 1120 c-3 -5 -1 -10 4 -10 6 0 11 5 11 10 0 6 -2 10 -4 10 -3 0
-8 -4 -11 -10z"/>
<path id="vector-30" d="M690 1099 c0 -6 -9 -22 -20 -36 -40 -51 -17 -153 43 -197 20 -15 43
-21 75 -20 74 1 83 7 104 58 15 39 16 55 8 87 -13 46 -25 44 -34 -6 -4 -19
-11 -35 -16 -35 -6 0 -10 -6 -10 -12 -1 -16 -63 -48 -94 -48 -12 0 -32 9 -45
21 -29 27 -20 72 22 108 50 42 73 51 109 40 21 -5 36 -5 42 1 7 7 5 10 -5 10
-7 0 -25 9 -39 20 -28 22 -140 29 -140 9z"/>
<path id="vector-31" d="M762 998 c-19 -19 -14 -38 11 -47 28 -11 47 4 47 35 0 18 -5 24 -23
24 -13 0 -28 -5 -35 -12z"/>
<path id="vector-32" d="M2041 934 c0 -11 3 -14 6 -6 3 7 2 16 -1 19 -3 4 -6 -2 -5 -13z"/>
<path id="vector-33" d="M585 920 c-3 -5 -1 -10 4 -10 6 0 11 5 11 10 0 6 -2 10 -4 10 -3 0
-8 -4 -11 -10z"/>
<path id="vector-34" d="M1778 813 c7 -3 16 -2 19 1 4 3 -2 6 -13 5 -11 0 -14 -3 -6 -6z"/>
<path id="vector-35" d="M750 730 c0 -5 5 -10 11 -10 5 0 7 5 4 10 -3 6 -8 10 -11 10 -2 0 -4
-4 -4 -10z"/>
<path id="vector-36" d="M1145 720 c3 -5 8 -10 11 -10 2 0 4 5 4 10 0 6 -5 10 -11 10 -5 0 -7
-4 -4 -10z"/>
<path id="vector-37" d="M1226 675 c-29 -31 -31 -40 -15 -51 7 -4 16 1 21 10 10 19 39 21 55
5 14 -14 -14 -79 -34 -79 -7 0 -13 -11 -13 -25 0 -13 -11 -44 -25 -69 l-25
-45 21 -15 c29 -20 42 -12 64 39 12 31 24 45 37 45 14 0 17 5 12 24 -5 21 18
96 30 96 15 0 36 -36 36 -61 0 -43 27 -38 32 6 5 42 1 50 -31 60 -31 9 -124
64 -133 78 -3 6 -17 -1 -32 -18z"/>
<path id="vector-38" d="M1086 654 c-9 -24 -7 -28 9 -14 17 14 20 30 6 30 -5 0 -12 -7 -15
-16z"/>
<path id="vector-39" d="M1454 539 c0 -40 -5 -55 -21 -68 -12 -10 -21 -30 -22 -49 0 -18 -2
-45 -3 -61 -3 -59 73 -119 136 -107 38 7 55 36 81 131 22 79 27 88 56 95 27 7
20 13 -41 34 -44 15 -77 11 -46 -6 22 -12 20 -56 -5 -131 -29 -85 -36 -97 -63
-97 -29 0 -76 36 -76 58 0 9 12 49 26 87 14 39 28 78 31 88 3 10 16 17 32 17
25 1 25 1 7 15 -11 8 -27 15 -37 15 -9 0 -22 7 -29 15 -21 25 -26 17 -26 -36z"/>
<path id="vector-40" d="M1737 469 c-23 -13 -47 -62 -47 -95 0 -19 16 -42 55 -81 58 -58 61
-63 45 -94 -27 -49 -110 6 -110 73 0 21 -4 38 -9 38 -14 0 -18 -9 -25 -62 -7
-44 -6 -48 14 -48 11 0 23 -7 26 -15 4 -8 11 -15 16 -15 6 0 26 -7 45 -16 30
-15 38 -15 61 -3 38 19 42 27 42 82 0 45 -4 52 -50 99 -52 52 -57 66 -40 99
24 45 75 10 86 -59 11 -70 25 -55 38 41 5 35 4 37 -20 31 -13 -3 -24 -2 -24 3
0 12 -45 33 -68 33 -9 0 -25 -5 -35 -11z m63 -179 c0 -5 -2 -10 -4 -10 -3 0
-8 5 -11 10 -3 6 -1 10 4 10 6 0 11 -4 11 -10z m28 -45 c-3 -3 -9 2 -12 12 -6
14 -5 15 5 6 7 -7 10 -15 7 -18z"/>
<path id="vector-41" d="M1311 424 c0 -11 3 -14 6 -6 3 7 2 16 -1 19 -3 4 -6 -2 -5 -13z"/>
<path id="vector-42" d="M1920 421 c0 -12 5 -21 10 -21 16 0 12 -96 -5 -110 -11 -9 -15 -32
-15 -80 l0 -68 -35 -6 c-40 -8 -46 -23 -12 -30 12 -3 36 -8 52 -11 17 -3 42
-9 58 -12 34 -7 35 10 1 26 -22 10 -25 15 -19 42 11 47 13 63 14 77 2 35 27
-2 52 -78 26 -81 47 -110 77 -110 10 0 13 8 9 27 -7 35 -35 122 -48 145 -5 10
-9 26 -9 36 0 21 93 112 115 112 8 0 15 7 15 15 0 10 -10 15 -29 15 -17 0 -33
5 -36 10 -4 7 -13 6 -27 -1 -20 -11 -20 -12 -4 -24 16 -12 13 -18 -32 -64 -55
-57 -88 -69 -72 -25 6 14 10 39 10 56 0 24 6 32 30 41 40 15 33 31 -16 38 -21
3 -49 9 -61 13 -19 6 -23 4 -23 -13z"/>
</g>
</svg>
